<svg xmlns="http://www.w3.org/2000/svg" xmlns:xlink="http://www.w3.org/1999/xlink" width="639" height="815" viewBox="0 0 639 815">
  <defs>
    <linearGradient id="linear-gradient" x1="0.5" x2="0.5" y2="1" gradientUnits="objectBoundingBox">
      <stop offset="0" stop-color="#fbb802"/>
      <stop offset="1" stop-color="#fb9902"/>
    </linearGradient>
    <clipPath id="clip-path">
      <path id="Hover" d="M0,0H634a5,5,0,0,1,5,5V810a5,5,0,0,1-5,5H0a0,0,0,0,1,0,0V0A0,0,0,0,1,0,0Z" transform="translate(50 155)" stroke="#707070" stroke-linecap="round" stroke-width="1" fill="url(#linear-gradient)"/>
    </clipPath>
  </defs>
  <g id="Group_1715" data-name="Group 1715" transform="translate(-50 -182)">
    <rect id="Hover-2" data-name="Hover" width="639" height="815" rx="17" transform="translate(50 182)" fill="#4376ef"/>
    <g id="Group_3" data-name="Group 3" transform="translate(0 27)" clip-path="url(#clip-path)">
      <g id="Exclusion_1" data-name="Exclusion 1" transform="translate(257 528)" fill="#fff" stroke-linecap="round" opacity="0.051">
        <path d="M 431.5 883.5 C 416.7985534667969 883.5 401.9724426269531 882.7330932617188 387.4334411621094 881.2206420898438 C 373.1041259765625 879.72998046875 358.7064514160156 877.4791259765625 344.6403198242188 874.53076171875 C 330.7543334960938 871.6201171875 316.8577880859375 867.9600219726563 303.3368835449219 863.652099609375 C 289.9678955078125 859.3930053710938 276.6454467773438 854.398193359375 263.7394409179688 848.806640625 C 238.20166015625 837.7421264648438 213.5701141357422 824.0472412109375 190.5287780761719 808.1022338867188 C 167.7064514160156 792.3085327148438 146.2452239990234 774.1704711914063 126.7413330078125 754.19189453125 C 107.2369995117188 734.2130126953125 89.52955627441406 712.229248046875 74.11100006103516 688.8510131835938 C 58.54410934448242 665.24853515625 45.17388916015625 640.0164184570313 34.37155532836914 613.8555297851563 C 28.91311073303223 600.63623046875 24.03666687011719 586.9886474609375 19.87788963317871 573.2919921875 C 15.67177772521973 559.4395751953125 12.09833335876465 545.2039794921875 9.256889343261719 530.98046875 C 6.378110885620117 516.5700073242188 4.18055534362793 501.8207702636719 2.725333452224731 487.1425476074219 C 1.248666644096375 472.2483215332031 0.5 457.0602111816406 0.5 442 C 0.5 426.9397888183594 1.248666644096375 411.7516784667969 2.725333452224731 396.8574523925781 C 4.180777549743652 382.1778869628906 6.378333568572998 367.4287719726563 9.256889343261719 353.0196533203125 C 12.09822177886963 338.7961120605469 15.67166709899902 324.5604553222656 19.87788963317871 310.7080078125 C 24.03655624389648 297.0119018554688 28.91300010681152 283.3643188476563 34.37155532836914 270.1443481445313 C 45.17388916015625 243.9834442138672 58.54410934448242 218.7513275146484 74.11100006103516 195.1488952636719 C 89.53033447265625 171.7698822021484 107.2377777099609 149.7861175537109 126.7413330078125 129.8083343505859 C 146.2454376220703 109.8293304443359 167.7066650390625 91.69122314453125 190.5287780761719 75.89788818359375 C 213.5703277587891 59.95266723632813 238.2018890380859 46.25766754150391 263.7394409179688 35.19333267211914 C 276.6444396972656 29.60222244262695 289.9670104980469 24.60744476318359 303.3368835449219 20.3478889465332 C 316.85888671875 16.0397777557373 330.7553405761719 12.37966632843018 344.6403198242188 9.469222068786621 C 358.7072143554688 6.520777702331543 373.1048889160156 4.269888877868652 387.4334411621094 2.779333353042603 C 401.9734497070313 1.266888856887817 416.7996520996094 0.5 431.5 0.5 C 446.2003479003906 0.5 461.0265502929688 1.266888856887817 475.5665588378906 2.779333353042603 C 489.8938903808594 4.269777774810791 504.2915649414063 6.52055549621582 518.3598022460938 9.469222068786621 C 532.2446899414063 12.3797779083252 546.14111328125 16.0397777557373 559.6630249023438 20.3478889465332 C 573.03369140625 24.607666015625 586.356201171875 29.60244369506836 599.2605590820313 35.19333267211914 C 624.798095703125 46.25766754150391 649.4296875 59.95266723632813 672.4712524414063 75.89788818359375 C 695.2937622070313 91.69166564941406 716.7550048828125 109.8296661376953 736.2587890625 129.8082275390625 C 755.7625732421875 149.7864379882813 773.469970703125 171.7702178955078 788.8890991210938 195.1488952636719 C 804.4556884765625 218.7508850097656 817.8258666992188 243.9831085205078 828.62841796875 270.1443481445313 C 834.0867919921875 283.3633422851563 838.963134765625 297.0108947753906 843.1221313476563 310.7080078125 C 847.3283081054688 324.5604553222656 850.9017944335938 338.7961120605469 853.7431030273438 353.0196533203125 C 856.6216430664063 367.4287719726563 858.8192138671875 382.1778869628906 860.274658203125 396.8574523925781 C 861.7513427734375 411.7527770996094 862.5 426.9410095214844 862.5 442 C 862.5 457.0589904785156 861.7513427734375 472.2472229003906 860.274658203125 487.1425476074219 C 858.8194580078125 501.8207702636719 856.6218872070313 516.5700073242188 853.7431030273438 530.98046875 C 850.9016723632813 545.2039794921875 847.3282470703125 559.4395751953125 843.1221313476563 573.2919921875 C 838.9630126953125 586.9896850585938 834.0865478515625 600.63720703125 828.62841796875 613.85546875 C 817.8258666992188 640.0167846679688 804.4556884765625 665.2490234375 788.8890991210938 688.8510131835938 C 773.4700927734375 712.2295532226563 755.7626953125 734.2134399414063 736.2587890625 754.1917724609375 C 716.755126953125 774.1701049804688 695.2938842773438 792.3082275390625 672.4712524414063 808.1022338867188 C 649.4298706054688 824.0472412109375 624.79833984375 837.7421264648438 599.2605590820313 848.806640625 C 586.355224609375 854.3980102539063 573.0326538085938 859.3927612304688 559.6630249023438 863.652099609375 C 546.14208984375 867.9600219726563 532.2456665039063 871.6199951171875 518.3598022460938 874.53076171875 C 504.2924499511719 877.4793090820313 489.894775390625 879.730224609375 475.5665588378906 881.2206420898438 C 461.0275573730469 882.7330932617188 446.2014465332031 883.5 431.5 883.5 Z M 431.475341796875 178.2382202148438 C 415.1950073242188 178.2382202148438 398.924560546875 180.0416717529297 383.1159973144531 183.5984497070313 C 367.7095642089844 187.0647735595703 352.5556640625 192.2369995117188 338.0751037597656 198.9713287353516 C 323.8586730957031 205.5826721191406 310.1467895507813 213.7658843994141 297.3204345703125 223.2935485839844 C 284.6170043945313 232.7298889160156 272.671875 243.5663299560547 261.8166809082031 255.5018920898438 C 250.9615631103516 267.4375610351563 241.1067810058594 280.5700988769531 232.5263366699219 294.5348815917969 C 223.8635559082031 308.6334533691406 216.4232177734375 323.7052307128906 210.4120025634766 339.3316650390625 C 204.2899932861328 355.2464294433594 199.5882263183594 371.9007873535156 196.4371185302734 388.8320007324219 C 193.2039947509766 406.2040100097656 191.5646667480469 424.0838928222656 191.5646667480469 441.9747924804688 C 191.5646667480469 459.8656616210938 193.2039947509766 477.7455444335938 196.4371185302734 495.1175537109375 C 199.5881042480469 512.0488891601563 204.2899932861328 528.703125 210.4120025634766 544.6178588867188 C 216.42333984375 560.2443237304688 223.8636627197266 575.3161010742188 232.5263366699219 589.41455078125 C 241.1074371337891 603.3803100585938 250.9621124267578 616.5128784179688 261.8166809082031 628.4475708007813 C 272.6713256835938 640.3826904296875 284.6165466308594 651.21923828125 297.3204345703125 660.656005859375 C 310.1467895507813 670.1836547851563 323.8586730957031 678.3668823242188 338.0751037597656 684.9782104492188 C 352.5556640625 691.7125854492188 367.7095642089844 696.884765625 383.1159973144531 700.3511352539063 C 398.924560546875 703.9078979492188 415.1950073242188 705.7113037109375 431.475341796875 705.7113037109375 C 447.7557678222656 705.7113037109375 464.0263366699219 703.9078979492188 479.8348999023438 700.3511352539063 C 495.2413330078125 696.8846435546875 510.3953247070313 691.7125854492188 524.8759765625 684.9782104492188 C 539.0934448242188 678.3662109375 552.8052368164063 670.18310546875 565.6305541992188 660.656005859375 C 578.334228515625 651.2195434570313 590.2794189453125 640.3829956054688 601.1344604492188 628.4475708007813 C 611.9891967773438 616.5125732421875 621.8438720703125 603.3798828125 630.4248046875 589.41455078125 C 639.0874633789063 575.3161010742188 646.5276489257813 560.2443237304688 652.5388793945313 544.6178588867188 C 658.660888671875 528.7034301757813 663.36279296875 512.0491943359375 666.5137939453125 495.1175537109375 C 669.7468872070313 477.7455444335938 671.38623046875 459.8656616210938 671.38623046875 441.9747924804688 C 671.38623046875 424.0838928222656 669.7468872070313 406.2040100097656 666.5137939453125 388.8320007324219 C 663.36279296875 371.9007873535156 658.6610107421875 355.2465515136719 652.5388793945313 339.3316650390625 C 646.5277709960938 323.7056579589844 639.0875854492188 308.6337890625 630.4248046875 294.5348815917969 C 621.8436889648438 280.5692138671875 611.989013671875 267.4366760253906 601.1344604492188 255.5018920898438 C 590.2792358398438 243.5663299560547 578.333984375 232.7297821044922 565.6305541992188 223.2935485839844 C 552.8052368164063 213.7664489746094 539.0934448242188 205.5833282470703 524.8759765625 198.9713287353516 C 510.3953247070313 192.2369995117188 495.2413330078125 187.0648956298828 479.8348999023438 183.5984497070313 C 464.0263366699219 180.0416717529297 447.7557678222656 178.2382202148438 431.475341796875 178.2382202148438 Z" stroke="none"/>
        <path d="M 431.5 883 C 446.1842346191406 883 460.9930114746094 882.2340087890625 475.514892578125 880.7233276367188 C 489.8259887695313 879.2346801757813 504.20654296875 876.9864501953125 518.2572021484375 874.0413208007813 C 532.1265258789063 871.1340942382813 546.0064697265625 867.4784545898438 559.51123046875 863.17578125 C 572.864990234375 858.9214477539063 586.1717529296875 853.9325561523438 599.061767578125 848.347900390625 C 624.569580078125 837.2963256835938 649.17236328125 823.617431640625 672.1866455078125 807.6909790039063 C 694.9830932617188 791.9152221679688 716.419677734375 773.7979736328125 735.9010009765625 753.842529296875 C 755.3827514648438 733.8867797851563 773.0701293945313 711.9279174804688 788.4718017578125 688.5758056640625 C 804.0206909179688 665.000244140625 817.3759155273438 639.7965698242188 828.1661987304688 613.6646728515625 C 833.6183471679688 600.4612426757813 838.4891967773438 586.8289794921875 842.6436767578125 573.1466674804688 C 846.8450927734375 559.3097534179688 850.41455078125 545.090087890625 853.2528076171875 530.882568359375 C 856.1283569335938 516.4880981445313 858.3234252929688 501.7552185058594 859.777099609375 487.0932312011719 C 861.2521362304688 472.2142333984375 862 457.0426635742188 862 442 C 862 426.9573364257813 861.2521362304688 411.7857666015625 859.777099609375 396.9067687988281 C 858.3232421875 382.2434387207031 856.1282348632813 367.5106811523438 853.2528076171875 353.1175537109375 C 850.4146728515625 338.9100036621094 846.84521484375 324.6902160644531 842.6436767578125 310.8533325195313 C 838.4893188476563 297.1715698242188 833.6184692382813 283.5393371582031 828.1661987304688 270.3352355957031 C 817.3759155273438 244.2033386230469 804.0206909179688 218.9996643066406 788.4718017578125 195.4241180419922 C 773.0701293945313 172.0718841552734 755.3826904296875 150.1131134033203 735.9010009765625 130.1575622558594 C 716.4195556640625 110.2018890380859 694.9829711914063 92.08466339111328 672.186767578125 76.30911254882813 C 649.172119140625 60.38233184814453 624.5693359375 46.70344543457031 599.061767578125 35.6521110534668 C 586.1726684570313 30.0678882598877 572.8660278320313 25.07900047302246 559.51123046875 20.82422256469727 C 546.0054321289063 16.52133369445801 532.1255493164063 12.86566638946533 518.2572021484375 9.958666801452637 C 504.2056579589844 7.013444423675537 489.8251037597656 4.765222072601318 475.514892578125 3.276666641235352 C 460.9918823242188 1.766000032424927 446.18310546875 1 431.5 1 C 416.81689453125 1 402.0081176757813 1.766000032424927 387.485107421875 3.276666641235352 C 373.1736755371094 4.765444278717041 358.7931213378906 7.01366662979126 344.7428894042969 9.958666801452637 C 330.8744506835938 12.86555576324463 316.9945678710938 16.52133369445801 303.4886779785156 20.82422256469727 C 290.1346740722656 25.07877731323242 276.827880859375 30.06766700744629 263.938232421875 35.6521110534668 C 238.4306640625 46.70344543457031 213.8278961181641 60.38233184814453 190.8132171630859 76.30911254882813 C 168.0174407958984 92.08422088623047 146.5808868408203 110.2014465332031 127.0991134643555 130.1575622558594 C 107.6176681518555 150.1127777099609 89.93022155761719 172.0715484619141 74.52833557128906 195.4241180419922 C 58.97900009155273 219 45.6238899230957 244.2036590576172 34.83377838134766 270.3352355957031 C 29.38122177124023 283.5403442382813 24.51033401489258 297.1725463867188 20.35633277893066 310.8533325195313 C 16.15477752685547 324.6902160644531 12.5853328704834 338.9100036621094 9.747221946716309 353.1175537109375 C 6.871778011322021 367.5106811523438 4.676777839660645 382.2434387207031 3.222888946533203 396.9067687988281 C 1.747888922691345 411.78466796875 1 426.9562072753906 1 442 C 1 457.0437927246094 1.747888922691345 472.21533203125 3.222888946533203 487.0932312011719 C 4.676555633544922 501.7552185058594 6.871666431427002 516.4880981445313 9.747221946716309 530.882568359375 C 12.58544445037842 545.090087890625 16.15488815307617 559.3097534179688 20.35633277893066 573.1466674804688 C 24.51044464111328 586.8280029296875 29.38144493103027 600.460205078125 34.83377838134766 613.6646728515625 C 45.6238899230957 639.7962036132813 58.97900009155273 664.9998779296875 74.52833557128906 688.5758056640625 C 89.92955780029297 711.9275512695313 107.6168899536133 733.886474609375 127.0991134643555 753.842529296875 C 146.5806732177734 773.79833984375 168.0172271728516 791.91552734375 190.8132171630859 807.6909790039063 C 213.8276672363281 823.617431640625 238.4304504394531 837.2963256835938 263.938232421875 848.347900390625 C 276.8288879394531 853.9328002929688 290.1355590820313 858.9215698242188 303.4886779785156 863.17578125 C 316.9935607910156 867.4785766601563 330.8734436035156 871.1342163085938 344.7428894042969 874.0413208007813 C 358.7923278808594 876.986328125 373.1728820800781 879.2344360351563 387.485107421875 880.7233276367188 C 402.0069885253906 882.2340087890625 416.8157653808594 883 431.5 883 M 431.475341796875 177.7382202148438 C 447.7926635742188 177.7382202148438 464.10009765625 179.5457763671875 479.9446716308594 183.1106719970703 C 495.3858947753906 186.5848846435547 510.5738830566406 191.7686614990234 525.0867919921875 198.5178833007813 C 539.3350219726563 205.1442260742188 553.0762329101563 213.3448944091797 565.9287719726563 222.8921051025391 C 578.6580200195313 232.3476715087891 590.6273193359375 243.2059936523438 601.5043334960938 255.1654510498047 C 612.3798828125 267.1232299804688 622.25341796875 280.281005859375 630.8507690429688 294.2731018066406 C 639.529541015625 308.3981018066406 646.9834594726563 323.49755859375 653.0055541992188 339.1522216796875 C 659.1385498046875 355.095458984375 663.8487548828125 371.7793273925781 667.0053100585938 388.7404479980469 C 670.244140625 406.1426696777344 671.88623046875 424.05322265625 671.88623046875 441.9747924804688 C 671.88623046875 459.8963317871094 670.244140625 477.806884765625 667.0053100585938 495.2091064453125 C 663.8487548828125 512.170654296875 659.1385498046875 528.8545532226563 653.0055541992188 544.79736328125 C 646.9833374023438 560.4524536132813 639.5294189453125 575.5518798828125 630.8507690429688 589.6763305664063 C 622.253662109375 603.668212890625 612.380126953125 616.8258666992188 601.5043334960938 628.7838745117188 C 590.6275634765625 640.7433471679688 578.658203125 651.6016845703125 565.9287719726563 661.0574340820313 C 553.0762329101563 670.6046752929688 539.3350219726563 678.8053588867188 525.0867919921875 685.431640625 C 510.5738830566406 692.180908203125 495.3858947753906 697.3646850585938 479.9446716308594 700.8389892578125 C 464.10009765625 704.4037475585938 447.7926635742188 706.2113037109375 431.475341796875 706.2113037109375 C 415.1581115722656 706.2113037109375 398.8507690429688 704.4037475585938 383.0062255859375 700.8388671875 C 367.5651245117188 697.3646850585938 352.3771057128906 692.1810302734375 337.8643188476563 685.431640625 C 323.6170959472656 678.8060302734375 309.8758850097656 670.6053466796875 297.022216796875 661.0574340820313 C 284.2925415039063 651.601318359375 272.3232116699219 640.7429809570313 261.44677734375 628.7839965820313 C 250.5712280273438 616.8263549804688 240.6976623535156 603.6686401367188 232.1003265380859 589.6763305664063 C 223.4216613769531 575.5517578125 215.9675598144531 560.4523315429688 209.9453277587891 544.79736328125 C 203.8123321533203 528.854248046875 199.1021118164063 512.1703491210938 195.945556640625 495.2091064453125 C 192.7067718505859 477.806884765625 191.0646667480469 459.8963317871094 191.0646667480469 441.9747924804688 C 191.0646667480469 424.05322265625 192.7067718505859 406.1426696777344 195.945556640625 388.7404479980469 C 199.1022186279297 371.7793273925781 203.8124389648438 355.0953369140625 209.9453277587891 339.1522216796875 C 215.9675598144531 323.4972229003906 223.4215545654297 308.3977661132813 232.1003265380859 294.2731018066406 C 240.6971130371094 280.2818908691406 250.5706634521484 267.1241149902344 261.44677734375 255.1655578613281 C 272.3236694335938 243.2061157226563 284.2929992675781 232.3477783203125 297.022216796875 222.8921051025391 C 309.8758850097656 213.3442230224609 323.6170959472656 205.1435546875 337.8643188476563 198.5178833007813 C 352.3771057128906 191.7685546875 367.5651245117188 186.5848846435547 383.0062255859375 183.1105499267578 C 398.8507690429688 179.5457763671875 415.1581115722656 177.7382202148438 431.475341796875 177.7382202148438 M 431.5 884 C 416.7812194824219 884 401.9377746582031 883.2322387695313 387.3816528320313 881.718017578125 C 373.0356750488281 880.2255859375 358.6210021972656 877.9721069335938 344.5377807617188 875.0201416015625 C 330.6361083984375 872.106201171875 316.7231140136719 868.44189453125 303.1851196289063 864.1285400390625 C 289.7990112304688 859.8638916015625 276.4607849121094 854.8630981445313 263.5406799316406 849.2654418945313 C 237.9727783203125 838.1878662109375 213.3123321533203 824.4768676757813 190.2442169189453 808.5133056640625 C 167.3954467773438 792.7013549804688 145.90966796875 774.5424194335938 126.3835525512695 754.5411376953125 C 106.8572235107422 734.539794921875 89.12966918945313 712.531005859375 73.69355773925781 689.1263427734375 C 58.10911178588867 665.4971923828125 44.72377777099609 640.236572265625 33.90944290161133 614.0463256835938 C 28.44488906860352 600.8123168945313 23.5629997253418 587.1494140625 19.39944458007813 573.4371948242188 C 15.18877792358398 559.5697631835938 11.61133289337158 545.318359375 8.766555786132813 531.0784301757813 C 5.884666442871094 516.65234375 3.684666633605957 501.8867797851563 2.227777719497681 487.19189453125 C 0.7495555281639099 472.2815551757813 0 457.0768737792969 0 442 C 0 426.9231262207031 0.7495555281639099 411.7184448242188 2.227777719497681 396.80810546875 C 3.684777736663818 382.1128845214844 5.884666442871094 367.3474426269531 8.766555786132813 352.9216613769531 C 11.61122226715088 338.6816711425781 15.18866634368896 324.4302368164063 19.39944458007813 310.5627746582031 C 23.56288909912109 296.8510131835938 28.44477844238281 283.1881103515625 33.90944290161133 269.9535522460938 C 44.72377777099609 243.7633361816406 58.10911178588867 218.5026702880859 73.69355773925781 194.8735504150391 C 89.12999725341797 171.4686737060547 106.8573303222656 149.4600067138672 126.3835525512695 129.4589996337891 C 145.9095611572266 109.4576644897461 167.3953399658203 91.29866790771484 190.2442169189453 75.48677825927734 C 213.3124389648438 59.52299880981445 237.9730072021484 45.8118896484375 263.5406799316406 34.73455429077148 C 276.4607849121094 29.13688850402832 289.7990112304688 24.13622283935547 303.1851196289063 19.87144470214844 C 316.7231140136719 15.5582218170166 330.6361083984375 11.89377784729004 344.5377807617188 8.979888916015625 C 358.6218872070313 6.027777671813965 373.0366516113281 3.774333238601685 387.3816528320313 2.282000064849854 C 401.9377746582031 0.7678889036178589 416.7812194824219 0 431.5 0 C 446.2186584472656 0 461.0622253417969 0.7678889036178589 475.6183471679688 2.282000064849854 C 489.9630126953125 3.774222135543823 504.3778991699219 6.027777671813965 518.4623413085938 8.979888916015625 C 532.364013671875 11.89388847351074 546.2769165039063 15.55833339691162 559.8147583007813 19.87144470214844 C 573.2013549804688 24.13633346557617 586.5396728515625 29.13699913024902 599.4593505859375 34.73455429077148 C 625.0269775390625 45.8118896484375 649.6875610351563 59.52299880981445 672.7557983398438 75.48677825927734 C 695.6045532226563 91.29866790771484 717.0904541015625 109.4575576782227 736.6165771484375 129.4589996337891 C 756.1426391601563 149.4600067138672 773.8701171875 171.4686737060547 789.3065795898438 194.8735504150391 C 804.8909912109375 218.5028839111328 818.276123046875 243.7634429931641 829.090576171875 269.9535522460938 C 834.5553588867188 283.1881103515625 839.4371337890625 296.8510131835938 843.6005859375 310.5627746582031 C 847.8113403320313 324.4302368164063 851.3887939453125 338.6816711425781 854.2334594726563 352.9216613769531 C 857.1153564453125 367.3474426269531 859.3152465820313 382.1128845214844 860.772216796875 396.80810546875 C 862.2503051757813 411.7184448242188 863 426.9231262207031 863 442 C 863 457.0768737792969 862.2503051757813 472.2815551757813 860.772216796875 487.19189453125 C 859.3153076171875 501.8867797851563 857.1153564453125 516.65234375 854.2334594726563 531.0784301757813 C 851.388671875 545.318359375 847.8112182617188 559.5697631835938 843.6005859375 573.4371948242188 C 839.43701171875 587.1494140625 834.5552368164063 600.8123168945313 829.090576171875 614.0463256835938 C 818.276123046875 640.2364501953125 804.8909912109375 665.4970092773438 789.3065795898438 689.1263427734375 C 773.8702392578125 712.531005859375 756.1427612304688 734.539794921875 736.6165771484375 754.5411376953125 C 717.09033203125 774.5425415039063 695.6043090820313 792.701416015625 672.7557983398438 808.5133056640625 C 649.6876831054688 824.4768676757813 625.0272216796875 838.1878662109375 599.4593505859375 849.2654418945313 C 586.5396728515625 854.8629760742188 573.2013549804688 859.86376953125 559.8147583007813 864.1285400390625 C 546.2769165039063 868.4417724609375 532.364013671875 872.1061401367188 518.4623413085938 875.0201416015625 C 504.3788757324219 877.9721069335938 489.964111328125 880.2256469726563 475.6183471679688 881.718017578125 C 461.0622253417969 883.2322387695313 446.2186584472656 884 431.5 884 Z M 431.475341796875 178.7382202148438 C 415.2316589355469 178.7382202148438 398.9983215332031 180.5375518798828 383.2257690429688 184.0862274169922 C 367.8542175292969 187.5447845458984 352.7343444824219 192.7053375244141 338.2860107421875 199.4246673583984 C 324.0997924804688 206.0220031738281 310.4173278808594 214.1877746582031 297.6185607910156 223.6948852539063 C 284.9414367675781 233.1117706298828 273.0203247070313 243.9263305664063 262.1865539550781 255.8383331298828 C 251.3525543212891 267.7506713867188 241.5165557861328 280.8583374023438 232.9523315429688 294.7966613769531 C 224.3055572509766 308.8692321777344 216.8788909912109 323.9134521484375 210.878662109375 339.51123046875 C 204.7677764892578 355.3971252441406 200.07421875 372.0218811035156 196.9286651611328 388.9234313964844 C 193.7011108398438 406.2656555175781 192.0646667480469 424.1146545410156 192.0646667480469 441.9747924804688 C 192.0646667480469 459.8348999023438 193.7011108398438 477.6838989257813 196.9286651611328 495.026123046875 C 200.07421875 511.9278869628906 204.7677764892578 528.5525512695313 210.878662109375 544.4383544921875 C 216.8789978027344 560.0363159179688 224.3056640625 575.0804443359375 232.9523315429688 589.1527709960938 C 241.5168914794922 603.0916748046875 251.3525543212891 616.1990966796875 262.1865539550781 628.111083984375 C 273.0202331542969 640.0231323242188 284.9414367675781 650.837646484375 297.6185607910156 660.254638671875 C 310.4173278808594 669.7617797851563 324.0997924804688 677.9275512695313 338.2860107421875 684.52490234375 C 352.7343444824219 691.2442016601563 367.8542175292969 696.40478515625 383.2257690429688 699.8633422851563 C 398.9983215332031 703.4119873046875 415.2316589355469 705.2113037109375 431.475341796875 705.2113037109375 C 447.7191162109375 705.2113037109375 463.9525451660156 703.4119873046875 479.72509765625 699.8633422851563 C 495.0966796875 696.40478515625 510.2166748046875 691.2442016601563 524.6651000976563 684.52490234375 C 538.8515625 677.9273071289063 552.5341186523438 669.7616577148438 565.3324584960938 660.254638671875 C 578.009765625 650.837646484375 589.930908203125 640.0231323242188 600.7645263671875 628.111083984375 C 611.5980834960938 616.199462890625 621.4340209960938 603.0919799804688 629.998779296875 589.1527709960938 C 638.6454467773438 575.080322265625 646.072021484375 560.0361938476563 652.0722045898438 544.4383544921875 C 658.183349609375 528.5523071289063 662.8767700195313 511.9276733398438 666.022216796875 495.026123046875 C 669.249755859375 477.6838989257813 670.88623046875 459.8348999023438 670.88623046875 441.9747924804688 C 670.88623046875 424.1146545410156 669.249755859375 406.2656555175781 666.022216796875 388.9234313964844 C 662.8767700195313 372.0218811035156 658.183349609375 355.3974304199219 652.0722045898438 339.51123046875 C 646.0720825195313 323.9136657714844 638.6455688476563 308.8695678710938 629.998779296875 294.7966613769531 C 621.4342041015625 280.8578796386719 611.5984497070313 267.7503356933594 600.7645263671875 255.8383331298828 C 589.9307861328125 243.9263305664063 578.0096435546875 233.1117706298828 565.3324584960938 223.6948852539063 C 552.5341186523438 214.1878814697266 538.8515625 206.022216796875 524.6651000976563 199.4246673583984 C 510.2166748046875 192.7053375244141 495.0966796875 187.5447845458984 479.72509765625 184.0862274169922 C 463.9525451660156 180.5375518798828 447.7191162109375 178.7382202148438 431.475341796875 178.7382202148438 Z" stroke="none" fill="#707070"/>
      </g>
      <g id="Exclusion_2" data-name="Exclusion 2" transform="translate(-183 -84)" fill="#fff" stroke-linecap="round" opacity="0.124">
        <path d="M 234 478.5 C 226.0348815917969 478.5 218.0027008056641 478.0848693847656 210.1265869140625 477.26611328125 C 202.3628845214844 476.4590454101563 194.5628814697266 475.2406616210938 186.943359375 473.6448364257813 C 179.4210662841797 472.0693664550781 171.8926544189453 470.0881042480469 164.5672302246094 467.756103515625 C 157.3235321044922 465.4500732421875 150.1060028076172 462.746337890625 143.1152954101563 459.7200622558594 C 129.2797088623047 453.7305297851563 115.9352951049805 446.3171081542969 103.452766418457 437.6858825683594 C 91.08853149414063 429.1364135742188 79.46153259277344 419.3177795410156 68.89470672607422 408.5025939941406 C 58.32776641845703 397.6874084472656 48.73435211181641 385.7867736816406 40.38088226318359 373.1312866210938 C 31.94711685180664 360.3543395996094 24.70341110229492 346.6951904296875 18.85099983215332 332.5332336425781 C 15.89370632171631 325.3771057128906 13.25176429748535 317.9891052246094 10.99858856201172 310.5745239257813 C 8.719882011413574 303.0760498046875 6.783882141113281 295.3697204589844 5.2443528175354 287.6695861816406 C 3.684647083282471 279.8682861328125 2.494058847427368 271.8838806152344 1.705647110939026 263.9381103515625 C 0.9056470394134521 255.8751831054688 0.5 247.6530609130859 0.5 239.5000610351563 C 0.5 231.3470001220703 0.9056470394134521 223.1248779296875 1.705647110939026 215.0619354248047 C 2.494235277175903 207.115234375 3.684764623641968 199.1307678222656 5.2443528175354 191.3304138183594 C 6.783823490142822 183.6302947998047 8.719823837280273 175.9239349365234 10.99858856201172 168.4254760742188 C 13.25194072723389 161.0104064941406 15.89388275146484 153.6224670410156 18.85099983215332 146.4668273925781 C 24.70335388183594 132.3049468994141 31.94705963134766 118.6458206176758 40.38088226318359 105.8688201904297 C 48.73464584350586 93.21288299560547 58.32811737060547 81.31229400634766 68.89470672607422 70.49758911132813 C 79.46112060546875 59.68264770507813 91.08811950683594 49.86399841308594 103.452766418457 41.31429290771484 C 115.9357070922852 32.68270492553711 129.2801208496094 25.26929473876953 143.1152954101563 19.28000068664551 C 150.1063537597656 16.2535285949707 157.3238220214844 13.54976463317871 164.5672302246094 11.24394130706787 C 171.8922882080078 8.911999702453613 179.4207000732422 6.930706024169922 186.9434051513672 5.355058670043945 C 194.5648803710938 3.758882284164429 202.3648223876953 2.540588140487671 210.1265869140625 1.733882308006287 C 218.0027008056641 0.915117621421814 226.0348815917969 0.5 234 0.5 C 241.9651184082031 0.5 249.9972991943359 0.915117621421814 257.8734130859375 1.733882308006287 C 265.6350708007813 2.540588140487671 273.4349975585938 3.758882284164429 281.0567016601563 5.355117797851563 C 288.5783081054688 6.93047046661377 296.1067199707031 8.911765098571777 303.4327697753906 11.24394130706787 C 310.6764221191406 13.54976463317871 317.8938903808594 16.2535285949707 324.8847045898438 19.28000068664551 C 338.7197570800781 25.26923561096191 352.0641174316406 32.68264770507813 364.5472412109375 41.31429290771484 C 376.9118347167969 49.86394119262695 388.5388793945313 59.68264770507813 399.1053466796875 70.49758911132813 C 409.671875 81.31229400634766 419.2653503417969 93.21288299560547 427.6191711425781 105.8688201904297 C 436.0527648925781 118.6454696655273 443.2964782714844 132.3045806884766 449.1489868164063 146.4668273925781 C 452.1059875488281 153.6219482421875 454.7478942871094 161.0098876953125 457.0014038085938 168.4254760742188 C 459.2801818847656 175.9239349365234 461.2161865234375 183.6302947998047 462.7556457519531 191.3304138183594 C 464.3153381347656 199.13134765625 465.5058898925781 207.1158294677734 466.2943420410156 215.0619354248047 C 467.0943603515625 223.1254730224609 467.5 231.3476409912109 467.5 239.5000610351563 C 467.5 247.6524658203125 467.0943603515625 255.8745880126953 466.2943420410156 263.9381103515625 C 465.5059509277344 271.8838806152344 464.3153381347656 279.8682861328125 462.7556457519531 287.6695861816406 C 461.2161254882813 295.3697204589844 459.2801208496094 303.0760498046875 457.0014038085938 310.5745239257813 C 454.7482299804688 317.9891052246094 452.1062927246094 325.3771057128906 449.1489868164063 332.5332336425781 C 443.2966613769531 346.695068359375 436.0529479980469 360.3541870117188 427.6191711425781 373.1312255859375 C 419.2656555175781 385.7867736816406 409.6722412109375 397.6874084472656 399.1053466796875 408.5025939941406 C 388.5389404296875 419.3174133300781 376.9118957519531 429.1361083984375 364.5472412109375 437.6858825683594 C 352.0645141601563 446.3171691894531 338.7201843261719 453.7305908203125 324.8847045898438 459.7200622558594 C 317.8931884765625 462.7466430664063 310.6757202148438 465.4503479003906 303.4327697753906 467.7560729980469 C 296.1085205078125 470.0877685546875 288.5801086425781 472.0690002441406 281.056640625 473.6448364257813 C 273.4359436035156 475.2408752441406 265.635986328125 476.4592895507813 257.8734130859375 477.26611328125 C 249.9972991943359 478.0848693847656 241.9651184082031 478.5 234 478.5 Z M 233.9866485595703 96.35034942626953 C 225.1405944824219 96.35034942626953 216.3003540039063 97.32935333251953 207.7115325927734 99.26023864746094 C 199.3407592773438 101.1421737670898 191.1072998046875 103.9501190185547 183.2398834228516 107.6060028076172 C 175.5164184570313 111.1948852539063 168.0670623779297 115.6369400024414 161.098876953125 120.8088226318359 C 154.1980590820313 125.9307632446289 147.709228515625 131.8125915527344 141.8125305175781 138.2908172607422 C 135.9163513183594 144.7685852050781 130.5635223388672 151.8960571289063 125.9028244018555 159.4752960205078 C 121.1977081298828 167.1264190673828 117.1565856933594 175.3058166503906 113.8917617797852 183.7863006591797 C 110.5668258666992 192.4225921630859 108.0131759643555 201.4604187011719 106.3017654418945 210.6487579345703 C 104.5458221435547 220.0761108398438 103.6555328369141 229.7784729003906 103.6555328369141 239.4863586425781 C 103.6555328369141 249.1943511962891 104.5458221435547 258.8966979980469 106.3017654418945 268.3240051269531 C 108.0131759643555 277.5124206542969 110.5668258666992 286.5502319335938 113.8917617797852 295.1864013671875 C 117.1566467285156 303.6669921875 121.1977615356445 311.8464050292969 125.9028854370117 319.4974670410156 C 130.5636444091797 327.0768127441406 135.9164733886719 334.2042846679688 141.8125305175781 340.681884765625 C 147.70947265625 347.1604614257813 154.1983489990234 353.0422973632813 161.098876953125 358.1638793945313 C 168.0669403076172 363.335693359375 175.5162353515625 367.77783203125 183.2398834228516 371.3668212890625 C 191.1075286865234 375.0228881835938 199.3410034179688 377.8307495117188 207.7115325927734 379.71240234375 C 216.3001708984375 381.6433410644531 225.1404113769531 382.6224060058594 233.9866485595703 382.6224060058594 C 242.8329925537109 382.6224060058594 251.6732330322266 381.6433410644531 260.2618713378906 379.71240234375 C 268.6324768066406 377.8307189941406 276.8659362792969 375.0228881835938 284.7335815429688 371.3668212890625 C 292.4581298828125 367.77734375 299.9074096679688 363.3352355957031 306.8746032714844 358.1638793945313 C 313.7751770019531 353.0422973632813 320.2640686035156 347.1604614257813 326.1609497070313 340.681884765625 C 332.05712890625 334.2042236328125 337.4098815917969 327.0767517089844 342.0706481933594 319.4974060058594 C 346.775634765625 311.8462829589844 350.8167724609375 303.6668701171875 354.0816345214844 295.1864013671875 C 357.4067077636719 286.5498352050781 359.9603576660156 277.5119934082031 361.6716613769531 268.3240051269531 C 363.4274597167969 258.8971252441406 364.3177795410156 249.1947631835938 364.3177795410156 239.4863586425781 C 364.3177795410156 229.7780609130859 363.4274597167969 220.0756988525391 361.6716613769531 210.6487579345703 C 359.9604187011719 201.4609375 357.4067687988281 192.4231109619141 354.0816345214844 183.7863006591797 C 350.8167724609375 175.3057708740234 346.775634765625 167.1263580322266 342.0706481933594 159.4752349853516 C 337.4098815917969 151.8958282470703 332.0570678710938 144.7683563232422 326.1609497070313 138.2908172607422 C 320.2641906738281 131.8124084472656 313.7753601074219 125.9306488037109 306.8746032714844 120.8088226318359 C 299.9068298339844 115.6371765136719 292.45751953125 111.1951141357422 284.7335815429688 107.6060028076172 C 276.8661804199219 103.9501190185547 268.6327514648438 101.1422348022461 260.2618713378906 99.26023864746094 C 251.6730651855469 97.32935333251953 242.8328247070313 96.35034942626953 233.9866485595703 96.35034942626953 Z" stroke="none"/>
        <path d="M 234 478 C 241.9478759765625 478 249.9627075195313 477.5857543945313 257.82177734375 476.7687683105469 C 265.5672912597656 475.9637145996094 273.3501892089844 474.7479858398438 280.9541625976563 473.1554260253906 C 288.4610595703125 471.5831298828125 295.9729309082031 469.6061706542969 303.2810668945313 467.2796325683594 C 310.5081787109375 464.97900390625 317.7098083496094 462.2811889648438 324.6860656738281 459.2611694335938 C 338.4915161132813 453.2846984863281 351.8070678710938 445.8873596191406 364.2628173828125 437.2745971679688 C 376.6012268066406 428.7430114746094 388.2036437988281 418.9451293945313 398.7477111816406 408.1531677246094 C 409.29248046875 397.3606567382813 418.8658142089844 385.4848937988281 427.2018737792969 372.8558349609375 C 435.6181030273438 360.1053466796875 442.8467102050781 346.4746398925781 448.6869506835938 332.3422241210938 C 451.6380615234375 325.2009887695313 454.2745361328125 317.8283386230469 456.5230102539063 310.4291076660156 C 458.7969970703125 302.9461669921875 460.72900390625 295.2557678222656 462.2653503417969 287.571533203125 C 463.8218383789063 279.7862854003906 465.010009765625 271.8182373046875 465.7967529296875 263.8887634277344 C 466.5951843261719 255.8415832519531 467 247.6360626220703 467 239.5000610351563 C 467 231.3640594482422 466.5951843261719 223.1584777832031 465.7967529296875 215.1112976074219 C 465.0099487304688 207.1814117431641 463.8218383789063 199.2133483886719 462.2653503417969 191.428466796875 C 460.7290649414063 183.7442321777344 458.7970581054688 176.0538177490234 456.5230102539063 168.5708770751953 C 454.274169921875 161.170654296875 451.6377563476563 153.7980651855469 448.6869506835938 146.6578216552734 C 442.8465270996094 132.5250549316406 435.6178894042969 118.8942947387695 427.2018737792969 106.1442337036133 C 418.8655395507813 93.51470947265625 409.2921142578125 81.63906097412109 398.7477111816406 70.84700012207031 C 388.2035827636719 60.05488204956055 376.6011657714844 50.25705718994141 364.2628173828125 41.72558975219727 C 351.806640625 33.11246871948242 338.4911193847656 25.71511840820313 324.6860656738281 19.73888206481934 C 317.7105407714844 16.7189998626709 310.5088195800781 14.0211763381958 303.2810668945313 11.72035312652588 C 295.9711303710938 9.393352508544922 288.4592895507813 7.416411876678467 280.9541625976563 5.844470500946045 C 273.3492431640625 4.25176477432251 265.5663452148438 3.036117553710938 257.8217163085938 2.231235265731812 C 249.9627075195313 1.414235353469849 241.9478759765625 1 234 1 C 226.0521240234375 1 218.0372924804688 1.414235353469849 210.1782379150391 2.231235265731812 C 202.4334716796875 3.036117553710938 194.6506500244141 4.251823425292969 187.0458831787109 5.844470500946045 C 179.5397644042969 7.416646957397461 172.0278778076172 9.393588066101074 164.7189483642578 11.72035312652588 C 157.4914093017578 14.0211763381958 150.2897033691406 16.7189998626709 143.3139343261719 19.73888206481934 C 129.5087585449219 25.71517562866211 116.1931762695313 33.11258697509766 103.737174987793 41.72558975219727 C 91.39876556396484 50.25705718994141 79.79640960693359 60.05493927001953 69.25229644775391 70.84706115722656 C 58.70788192749023 81.63906097412109 49.13452911376953 93.51470947265625 40.79817581176758 106.1442337036133 C 32.38194274902344 118.894645690918 25.15329360961914 132.5254058837891 19.31305885314941 146.6578216552734 C 16.36211776733398 153.798583984375 13.72564697265625 161.1711730957031 11.47700023651123 168.5708770751953 C 9.202940940856934 176.0538177490234 7.270941257476807 183.7442321777344 5.734647274017334 191.428466796875 C 4.17829418182373 199.2127685546875 2.990176439285278 207.1808166503906 2.203235387802124 215.1113586425781 C 1.404823541641235 223.1578826904297 1 231.3634643554688 1 239.5000610351563 C 1 247.6366424560547 1.404823541641235 255.8421783447266 2.203235387802124 263.8887023925781 C 2.990000009536743 271.8182373046875 4.178176403045654 279.7862854003906 5.734647274017334 287.571533203125 C 7.270999908447266 295.2557678222656 9.203000068664551 302.9461669921875 11.47700023651123 310.4291076660156 C 13.72547054290771 317.8283386230469 16.36194038391113 325.2009887695313 19.31305885314941 332.3422241210938 C 25.15335273742676 346.4747619628906 32.38199996948242 360.1055297851563 40.79817581176758 372.8558349609375 C 49.13417816162109 385.4848937988281 58.7075309753418 397.3606567382813 69.25234985351563 408.1531677246094 C 79.79682159423828 418.9454650878906 91.39917755126953 428.7433471679688 103.737174987793 437.2745971679688 C 116.1927642822266 445.8872985839844 129.50830078125 453.2846374511719 143.3139343261719 459.2611694335938 C 150.2893524169922 462.2808837890625 157.4910583496094 464.9786376953125 164.7189483642578 467.2796325683594 C 172.0282287597656 469.6065368652344 179.5401153564453 471.5834655761719 187.0458831787109 473.1554260253906 C 194.6487121582031 474.7477722167969 202.4315338134766 475.9634704589844 210.1782989501953 476.7687683105469 C 218.0372924804688 477.5857543945313 226.0521240234375 478 234 478 M 233.9866485595703 95.85034942626953 C 242.8696441650391 95.85034942626953 251.746826171875 96.83347320556641 260.37158203125 98.77241516113281 C 268.7771911621094 100.6621780395508 277.0445861816406 103.4817047119141 284.9443054199219 107.1525268554688 C 292.6989440917969 110.7559432983398 300.1776428222656 115.2155303955078 307.1725769042969 120.4072952270508 C 314.0992431640625 125.5483551025391 320.6122436523438 131.4519958496094 326.5307006835938 137.9542999267578 C 332.4478149414063 144.4548187255859 337.8194580078125 151.6074066162109 342.4965209960938 159.2133483886719 C 347.2175903320313 166.8905334472656 351.2723388671875 175.0975952148438 354.5483093261719 183.6066436767578 C 357.8843383789063 192.2719421386719 360.4463500976563 201.3394165039063 362.1632385253906 210.5571746826172 C 363.9246520996094 220.0142364501953 364.8177795410156 229.7474060058594 364.8177795410156 239.4863586425781 C 364.8177795410156 249.2253570556641 363.9246520996094 258.9585876464844 362.1632385253906 268.4155883789063 C 360.4462890625 277.6335144042969 357.8843078613281 286.7009887695313 354.5483093261719 295.3660583496094 C 351.2723388671875 303.8750610351563 347.2175903320313 312.0821838378906 342.4965209960938 319.7593383789063 C 337.8194580078125 327.3651733398438 332.4478149414063 334.5177612304688 326.5307006835938 341.0184020996094 C 320.6121215820313 347.5209350585938 314.0990600585938 353.4245910644531 307.1725769042969 358.5653991699219 C 300.1781616210938 363.7569274902344 292.6995239257813 368.2165222167969 284.9443054199219 371.8202819824219 C 277.0443420410156 375.4913024902344 268.7768859863281 378.3107604980469 260.37158203125 380.2002258300781 C 251.7469940185547 382.1392211914063 242.8698272705078 383.1224060058594 233.9866485595703 383.1224060058594 C 225.1035308837891 383.1224060058594 216.2264099121094 382.1392211914063 207.6018218994141 380.2002258300781 C 199.1965942382813 378.3107604980469 190.9291229248047 375.4913635253906 183.0291748046875 371.8202819824219 C 175.2748260498047 368.2170104980469 167.7961120605469 363.7574157714844 160.8008880615234 358.5653991699219 C 153.8744659423828 353.4245910644531 147.3614044189453 347.5209350585938 141.4427642822266 341.0184020996094 C 135.5257720947266 334.5178833007813 130.154052734375 327.3652954101563 125.4769439697266 319.7593383789063 C 120.7558822631836 312.0822448730469 116.701057434082 303.8751831054688 113.4251174926758 295.3660583496094 C 110.0892333984375 286.701416015625 107.5272369384766 277.6339416503906 105.810173034668 268.4155883789063 C 104.0487060546875 258.9581909179688 103.1555328369141 249.2249450683594 103.1555328369141 239.4863586425781 C 103.1555328369141 229.7478179931641 104.0487060546875 220.0146484375 105.810173034668 210.5571746826172 C 107.5272369384766 201.3388824462891 110.0892333984375 192.2714080810547 113.4251174926758 183.6066436767578 C 116.7009963989258 175.0976409912109 120.7558212280273 166.8905944824219 125.4769439697266 159.2133483886719 C 130.1539459228516 151.6076507568359 135.5255889892578 144.4550628662109 141.4427642822266 137.9542999267578 C 147.3611755371094 131.4521789550781 153.8741760253906 125.548469543457 160.8008880615234 120.4072952270508 C 167.7962951660156 115.2152328491211 175.2749481201172 110.7557067871094 183.0291748046875 107.1525268554688 C 190.9288787841797 103.4816436767578 199.1963500976563 100.6621780395508 207.6018218994141 98.77241516113281 C 216.2265930175781 96.83347320556641 225.1036987304688 95.85034942626953 233.9866485595703 95.85034942626953 M 234 479 C 226.0181121826172 479 217.9685821533203 478.5840148925781 210.0748748779297 477.7633972167969 C 202.2951202392578 476.9547119140625 194.4781188964844 475.7337646484375 186.8408813476563 474.1341857910156 C 179.3021240234375 472.5552978515625 171.7571716308594 470.5697021484375 164.4155883789063 468.2325439453125 C 157.1564178466797 465.9216003417969 149.9231109619141 463.2120056152344 142.9166412353516 460.1788940429688 C 129.0513000488281 454.1764831542969 115.6780014038086 446.7471313476563 103.1684112548828 438.0971069335938 C 90.77764892578125 429.5293579101563 79.12593841552734 419.6897583007813 68.53705596923828 408.8519897460938 C 57.94805908203125 398.0142211914063 48.33452987670898 386.0887145996094 39.96358871459961 373.4067077636719 C 31.51223564147949 360.6031188964844 24.25347137451172 346.91552734375 18.38888168334961 332.7241821289063 C 15.42547035217285 325.55322265625 12.7780590057373 318.1499328613281 10.52017688751221 310.7198791503906 C 8.236764907836914 303.205810546875 6.296764850616455 295.4835205078125 4.754058837890625 287.767578125 C 3.191235303878784 279.9507141113281 1.998176455497742 271.9500122070313 1.208117604255676 263.9874572753906 C 0.4064705967903137 255.9082336425781 0 247.6694641113281 0 239.5000610351563 C 0 231.3305816650391 0.4064705967903137 223.0918273925781 1.208117604255676 215.0125885009766 C 1.99823534488678 207.0498809814453 3.191235303878784 199.0490570068359 4.754058837890625 191.2324066162109 C 6.296705722808838 183.5164642333984 8.236705780029297 175.7941741943359 10.52017688751221 168.2801208496094 C 12.77799987792969 160.8503570556641 15.42541217803955 153.4468841552734 18.38888168334961 146.27587890625 C 24.25347137451172 132.08447265625 31.51223564147949 118.3969421386719 39.96358871459961 105.5933532714844 C 48.33464813232422 92.91123199462891 57.94811630249023 80.98570251464844 68.53705596923828 70.14817810058594 C 79.12588500976563 59.31029510498047 90.777587890625 49.4708251953125 103.1684112548828 40.90305709838867 C 115.6781158447266 32.2529411315918 129.0514068603516 24.82347106933594 142.9166412353516 18.82117652893066 C 149.9231109619141 15.78800010681152 157.1564178466797 13.07835292816162 164.4155883789063 10.76747035980225 C 171.7571716308594 8.430294036865234 179.3021240234375 6.444705963134766 186.8408813476563 4.865705966949463 C 194.4786529541016 3.266117572784424 202.2957000732422 2.045058727264404 210.0748748779297 1.2365882396698 C 217.9685821533203 0.4160000085830688 226.0181121826172 0 234 0 C 241.9818878173828 0 250.0314178466797 0.4160000085830688 257.9251098632813 1.2365882396698 C 265.7041625976563 2.045058727264404 273.521240234375 3.266117572784424 281.1591796875 4.865705966949463 C 288.6979370117188 6.444705963134766 296.2428894042969 8.430411338806152 303.5844116210938 10.76747035980225 C 310.8438110351563 13.07835292816162 318.0771179199219 15.78800010681152 325.0833435058594 18.82117652893066 C 338.9485778808594 24.82347106933594 352.3218383789063 32.2529411315918 364.8315734863281 40.90305709838867 C 377.222412109375 49.4708251953125 388.8741149902344 59.31029510498047 399.4630126953125 70.14817810058594 C 410.0518798828125 80.98570251464844 419.6653442382813 92.91123199462891 428.0364685058594 105.5933532714844 C 436.4878234863281 118.3969421386719 443.7465209960938 132.0845947265625 449.6111145019531 146.27587890625 C 452.5746459960938 153.4468841552734 455.2219848632813 160.8503570556641 457.4798278808594 168.2801208496094 C 459.7633056640625 175.7941741943359 461.7033081054688 183.5164642333984 463.2459411621094 191.2324066162109 C 464.8087768554688 199.0490570068359 466.0018310546875 207.0498809814453 466.7918701171875 215.0125885009766 C 467.5934753417969 223.0918273925781 468 231.3305816650391 468 239.5000610351563 C 468 247.6694641113281 467.5934753417969 255.9082336425781 466.7918701171875 263.9874572753906 C 466.0018310546875 271.9500122070313 464.8087768554688 279.9507141113281 463.2459411621094 287.767578125 C 461.7032470703125 295.4835205078125 459.7632446289063 303.205810546875 457.4798278808594 310.7198791503906 C 455.2219543457031 318.1499328613281 452.5745239257813 325.55322265625 449.6111145019531 332.7241821289063 C 443.7465209960938 346.91552734375 436.4878234863281 360.6029968261719 428.0364685058594 373.4067077636719 C 419.6654663085938 386.0887145996094 410.0519409179688 398.0142211914063 399.4630126953125 408.8519897460938 C 388.8740539550781 419.6898803710938 377.2222900390625 429.5293579101563 364.8315734863281 438.0971069335938 C 352.3219299316406 446.7471313476563 338.9486999511719 454.1764831542969 325.0833435058594 460.1788940429688 C 318.0771179199219 463.2118835449219 310.8438110351563 465.9216003417969 303.5844116210938 468.2325439453125 C 296.2428894042969 470.5697021484375 288.6979370117188 472.55517578125 281.1591796875 474.1341857910156 C 273.5218200683594 475.7337646484375 265.7047729492188 476.954833984375 257.9251098632813 477.7633972167969 C 250.0314178466797 478.5840148925781 241.9818878173828 479 234 479 Z M 233.9866485595703 96.85034942626953 C 225.1778259277344 96.85034942626953 216.3745269775391 97.82518005371094 207.8211822509766 99.74806213378906 C 199.4852905273438 101.6221771240234 191.285888671875 104.4184722900391 183.4505920410156 108.0594100952148 C 175.7574768066406 111.6341781616211 168.3375854492188 116.0588226318359 161.3968811035156 121.2102966308594 C 154.5221710205078 126.3128814697266 148.0574188232422 132.1728210449219 142.1822967529297 138.6274108886719 C 136.3070526123047 145.0821228027344 130.9731140136719 152.1845245361328 126.3287658691406 159.7371826171875 C 121.6395874023438 167.3624114990234 117.612174987793 175.5141754150391 114.3583526611328 183.9659423828125 C 111.0443496704102 192.5738220214844 108.4991149902344 201.5820007324219 106.7932968139648 210.7402954101563 C 105.0430603027344 220.1372375488281 104.1555328369141 229.8087615966797 104.1555328369141 239.4863586425781 C 104.1555328369141 249.1640014648438 105.0430603027344 258.8356018066406 106.7932968139648 268.2324829101563 C 108.4991149902344 277.3907775878906 111.0443496704102 286.3989562988281 114.3583526611328 295.0067749023438 C 117.6122360229492 303.4586486816406 121.6396484375 311.6104125976563 126.3287658691406 319.2355346679688 C 130.9732360839844 326.7883605957031 136.3071136474609 333.8907165527344 142.1822967529297 340.3453063964844 C 148.0573577880859 346.7998962402344 154.5221252441406 352.6599426269531 161.3968811035156 357.7624206542969 C 168.3375854492188 362.9139404296875 175.7574768066406 367.3385925292969 183.4505920410156 370.9134216308594 C 191.285888671875 374.5544128417969 199.4852905273438 377.3507080078125 207.8211822509766 379.2245788574219 C 216.3745269775391 381.1475830078125 225.1778259277344 382.1224060058594 233.9866485595703 382.1224060058594 C 242.7955322265625 382.1224060058594 251.598876953125 381.1475830078125 260.1522216796875 379.2245788574219 C 268.4881286621094 377.3507080078125 276.6875915527344 374.5544128417969 284.5228881835938 370.9134216308594 C 292.2161254882813 367.3384704589844 299.6361083984375 362.9139404296875 306.5765991210938 357.7624206542969 C 313.451416015625 352.6599426269531 319.9161682128906 346.7998962402344 325.7911682128906 340.3453063964844 C 331.6661682128906 333.890869140625 337.0001831054688 326.7884826660156 341.6447143554688 319.2355346679688 C 346.3338317871094 311.6102294921875 350.3611755371094 303.4585266113281 353.6150512695313 295.0067749023438 C 356.9290466308594 286.3988342285156 359.474365234375 277.3906555175781 361.1801147460938 268.2324829101563 C 362.9303588867188 258.8356018066406 363.8177795410156 249.1640014648438 363.8177795410156 239.4863586425781 C 363.8177795410156 229.8087615966797 362.9303588867188 220.1372375488281 361.1801147460938 210.7402954101563 C 359.474365234375 201.5820007324219 356.9290466308594 192.5739440917969 353.6150512695313 183.9659423828125 C 350.3612365722656 175.5142974853516 346.3338928222656 167.3625335693359 341.6447143554688 159.7371826171875 C 337.0003051757813 152.1842956542969 331.6663513183594 145.0818786621094 325.7911682128906 138.6274108886719 C 319.9161071777344 132.1728210449219 313.451416015625 126.3128814697266 306.5765991210938 121.2102966308594 C 299.6361083984375 116.0589447021484 292.2161254882813 111.6342926025391 284.5228881835938 108.0594100952148 C 276.6875915527344 104.4184722900391 268.4881286621094 101.6221771240234 260.1522216796875 99.74806213378906 C 251.598876953125 97.82518005371094 242.7955322265625 96.85034942626953 233.9866485595703 96.85034942626953 Z" stroke="none" fill="#707070"/>
      </g>
    </g>
  </g>
</svg>
