<svg xmlns="http://www.w3.org/2000/svg" width="69.002" height="68.999" viewBox="0 0 69.002 68.999">
  <path id="Exclusion_3" data-name="Exclusion 3" d="M-9747.5-773.931a34.276,34.276,0,0,1-13.428-2.711,34.4,34.4,0,0,1-10.968-7.394A34.41,34.41,0,0,1-9779.29-795,34.286,34.286,0,0,1-9782-808.43a34.289,34.289,0,0,1,2.711-13.43,34.41,34.41,0,0,1,7.394-10.966,34.4,34.4,0,0,1,10.968-7.393,34.28,34.28,0,0,1,13.428-2.711,34.293,34.293,0,0,1,13.43,2.711,34.4,34.4,0,0,1,10.968,7.393,34.408,34.408,0,0,1,7.394,10.966A34.289,34.289,0,0,1-9713-808.43,34.285,34.285,0,0,1-9715.71-795a34.407,34.407,0,0,1-7.394,10.966,34.4,34.4,0,0,1-10.968,7.394A34.289,34.289,0,0,1-9747.5-773.931Zm9.493-31.588-7.343,7.453,3.567,3.621,10.7-10.868,3.567-3.616-3.567-3.621-10.7-10.863-3.567,3.621,7.338,7.446H-9767v6.827Z" transform="translate(9782.001 842.93)" fill="#fff"/>
</svg>
