<svg xmlns="http://www.w3.org/2000/svg" width="48.993" height="46.021" viewBox="0 0 48.993 46.021">
  <g id="home" transform="translate(2.5 2.5)">
    <path id="Path_784" data-name="Path 784" d="M43.358,34.87,26.352,17.863a6.333,6.333,0,0,0-8.945,0L.4,34.87A1.367,1.367,0,1,0,2.334,36.8l1.085-1.085V53.1A3.931,3.931,0,0,0,7.35,57.034h6.837a.855.855,0,0,0,.855-.855V43.531a4.273,4.273,0,0,1,4.273-4.273h5.128a4.273,4.273,0,0,1,4.273,4.273V56.18a.855.855,0,0,0,.855.855h6.837A3.931,3.931,0,0,0,40.34,53.1V35.719L41.425,36.8a1.367,1.367,0,1,0,1.933-1.934Z" transform="translate(-0.001 -16.014)" fill="none" stroke="#000" stroke-width="5"/>
  </g>
</svg>
