<svg xmlns="http://www.w3.org/2000/svg" width="81.191" height="81.262" viewBox="0 0 81.191 81.262">
  <g id="Group_1716" data-name="Group 1716" transform="translate(-46 -22)">
    <path id="Path_777" data-name="Path 777" d="M50.157,344.794,67.495,314.77H55.8l5.85-10.078H89.132l-5.85,10.149H73.345L55.8,345.358a35.521,35.521,0,1,0,0-71.042,26.29,26.29,0,0,0-4.158.282L34.159,304.833H55.8l-5.85,10.078H22.459l22.412-38.763a35.379,35.379,0,0,0,5.286,68.646M55.8,269.1a40.631,40.631,0,1,1-40.6,40.6,40.7,40.7,0,0,1,40.6-40.6" transform="translate(30.8 -247.1)" fill-rule="evenodd"/>
  </g>
</svg>
